# xmcd CD database file
# Copyright (C) 1993-1996 Ti Kan
#
# Track frame offsets:
# 150
# 24330
# 59070
# 88460
# 128785
# 159515
# 180750
# 230270
# 252010
# 280853
#
# Disc length: 4286 seconds
#
# Revision: 0
# Processed by: cddbd v1.4b41PL1 Copyright (c) Steve Scherf et al.
# Submitted via: inCDius 1.1b5
#
DISCID=7d10bc0a
DTITLE=The Unknow Blues Band featuring Big Joe Burrell - Live at Hunt's
DYEAR=1900
DGENRE=
TTITLE0=Back At The Chicken Shack
TTITLE1=Woke Up This Morning
TTITLE2=I Think It's Gonna Work Out Fine
TTITLE3=Please Send Me Someone To Love
TTITLE4=Next Time You See Me
TTITLE5=Break It
TTITLE6=Mercy, Mercy, Mercy
TTITLE7=Something You Got
TTITLE8=Sweet Odelia
TTITLE9=Every Day I Have The Blues
EXTD=
EXTT0=
EXTT1=
EXTT2=
EXTT3=
EXTT4=
EXTT5=
EXTT6=
EXTT7=
EXTT8=
EXTT9=
PLAYORDER=
